# xmcd
#
# Track frame offsets:
#	182
#	14882
#	27347
#	39980
#	53185
#	67532
#	80422
#	93767
#	105335
#	117495
#	131030
#	145932
#	156735
#	169235
#	181282
#	192010
#	204817
#	217097
#	229815
#	241475
#	253510
#	265265
#
# Disc length: 3905
#
# Revision: 1
# Processed by: cddbd v1.5.1PL0 Copyright (c) Steve Scherf et al.
# Submitted via: EasyCDDAExtractor 5.0.5.1
# Normalized: r0:DSETVAR1
#
DISCID=340f3f16
DTITLE=Various Artist - Rhythm And Blues: 1968
DYEAR=1991
DGENRE=Blues
TTITLE0=Marvin Gaye - I Heard It Through The Grapevine
TTITLE1=Aretha Franklin - Chain Of Fools
TTITLE2=Temptations - I Wish It Would Rain
TTITLE3=Young Holt Unlimited - Soulful Strut
TTITLE4=Archie Bell And The Drells - Tighten Up
TTITLE5=Sam And Dave - I Thank You
TTITLE6=Barbara Acklin - Love Makes A Woman
TTITLE7=Clarence Carter - Slip Away
TTITLE8=Otis Redding - (Sittin' On) The Dock Of The Bay
TTITLE9=Percy Sledge - Take Time To Know Her
TTITLE10=Delfonics - La-La Means I Love You
TTITLE11=Aretha Franklin - (Sweet Sweet Baby) Since You've Been Gone
TTITLE12=Smokey Robinson - I Second That Emotion
TTITLE13=Cliff Nobles And Company - The Horse
TTITLE14=Impressions - We're A Winner
TTITLE15=Marvin Gaye And Tammi Terrell - You're All I Need To Get By
TTITLE16=Jerry Butler - Hey, Western Union Man
TTITLE17=Johnnie Taylor - Who's Making Love
TTITLE18=O'kaysions - Girl Watcher
TTITLE19=Peggy Scott And Jo Jo Benson - Lover's Holiday
TTITLE20=Hugh Masekela - Grazing In The Grass
TTITLE21=Dells - Stay In My Corner
EXTD=ID3G:   0
EXTT0=\n
EXTT1=
EXTT2=
EXTT3=
EXTT4=
EXTT5=
EXTT6=
EXTT7=
EXTT8=
EXTT9=
EXTT10=
EXTT11=
EXTT12=
EXTT13=
EXTT14=
EXTT15=
EXTT16=
EXTT17=
EXTT18=
EXTT19=
EXTT20=
EXTT21=
PLAYORDER=
